<svg id="visual" viewBox="0 0 1200 630" width="1200" height="630" xmlns="http://www.w3.org/2000/svg" xmlns:xlink="http://www.w3.org/1999/xlink" version="1.1"><path d="M0 58L109 58L109 64L218 64L218 39L327 39L327 83L436 83L436 64L545 64L545 45L655 45L655 58L764 58L764 108L873 108L873 102L982 102L982 58L1091 58L1091 96L1200 96L1200 64L1200 0L1200 0L1091 0L1091 0L982 0L982 0L873 0L873 0L764 0L764 0L655 0L655 0L545 0L545 0L436 0L436 0L327 0L327 0L218 0L218 0L109 0L109 0L0 0Z" fill="#fa7268"></path><path d="M0 114L109 114L109 222L218 222L218 190L327 190L327 165L436 165L436 146L545 146L545 203L655 203L655 203L764 203L764 190L873 190L873 209L982 209L982 184L1091 184L1091 190L1200 190L1200 165L1200 62L1200 94L1091 94L1091 56L982 56L982 100L873 100L873 106L764 106L764 56L655 56L655 43L545 43L545 62L436 62L436 81L327 81L327 37L218 37L218 62L109 62L109 56L0 56Z" fill="#ea5e66"></path><path d="M0 297L109 297L109 467L218 467L218 411L327 411L327 322L436 322L436 448L545 448L545 448L655 448L655 329L764 329L764 385L873 385L873 467L982 467L982 354L1091 354L1091 398L1200 398L1200 335L1200 163L1200 188L1091 188L1091 182L982 182L982 207L873 207L873 188L764 188L764 201L655 201L655 201L545 201L545 144L436 144L436 163L327 163L327 188L218 188L218 220L109 220L109 112L0 112Z" fill="#d84a64"></path><path d="M0 549L109 549L109 549L218 549L218 505L327 505L327 524L436 524L436 581L545 581L545 537L655 537L655 524L764 524L764 574L873 574L873 555L982 555L982 549L1091 549L1091 549L1200 549L1200 511L1200 333L1200 396L1091 396L1091 352L982 352L982 465L873 465L873 383L764 383L764 327L655 327L655 446L545 446L545 446L436 446L436 320L327 320L327 409L218 409L218 465L109 465L109 295L0 295Z" fill="#c53762"></path><path d="M0 631L109 631L109 631L218 631L218 631L327 631L327 631L436 631L436 631L545 631L545 631L655 631L655 631L764 631L764 631L873 631L873 631L982 631L982 631L1091 631L1091 631L1200 631L1200 631L1200 509L1200 547L1091 547L1091 547L982 547L982 553L873 553L873 572L764 572L764 522L655 522L655 535L545 535L545 579L436 579L436 522L327 522L327 503L218 503L218 547L109 547L109 547L0 547Z" fill="#b0235f"></path></svg>